<?xml version="1.0" encoding="utf-8"?>
<!-- Generator: Adobe Illustrator 28.4.1, SVG Export Plug-In . SVG Version: 6.00 Build 0)  -->
<svg version="1.1" id="Layer_1" xmlns="http://www.w3.org/2000/svg" xmlns:xlink="http://www.w3.org/1999/xlink" x="0px" y="0px"
	 viewBox="0 0 1000 1000" style="enable-background:new 0 0 1000 1000;" xml:space="preserve">
<style type="text/css">
	.st0{fill:#4CC266;}
	.st1{fill:#FFFFFF;}
</style>
<g>
	<g id="_x39_Mr2fH.tif_00000067954428752224608390000011612752053651213445_">
		<g>
			<g>
				<path class="st1" d="M929.9099,502.4324h0.1001c0-80.42,0.05-160.83-0.05-241.25c-0.01-13.93-0.1699-27.73-2.8999-41.68
					c-6.3401-32.34-19.52-61.16-41.3801-85.62c-36.6899-41.06-82.8398-61.4301-138.0701-61.39
					c-162.3499,0.09-324.6899,0-487.0398,0.08c-13.9299,0-27.73,0.1299-41.6799,2.86c-32.3501,6.34-61.1802,19.53-85.6401,41.38
					c-41.05,36.68-61.46,82.83-61.4299,138.04c0.0798,162.33,0,324.65,0.0701,486.97c0.0098,13.93,0.0898,27.74,2.8999,41.68
					c5.1499,25.49,14.1299,49.19,29.3301,70.16c36.71,50.65,86.5398,76.68,149.2397,76.75
					c164.1301,0.19,328.2603-0.07,492.3901,0.23c22.9299,0.04,45-3.3,66.3999-11.04c69.6602-25.21,116.0901-89.86,117.3901-160.74
					C931.1201,673.4124,929.9099,587.9124,929.9099,502.4324z"/>
			</g>
		</g>
	</g>
	<g id="FaO7lZ.tif">
		<g>
			<g>
				<path class="st0" d="M929.9099,502.4324h0.1001c0-80.42,0.05-160.83-0.05-241.25c-0.01-13.93-0.1699-27.73-2.8999-41.68
					c-6.3401-32.34-19.52-61.16-41.3801-85.62c-36.6899-41.06-82.8398-61.4301-138.0701-61.39
					c-162.3499,0.09-324.6899,0-487.0398,0.08c-13.9299,0-27.73,0.1299-41.6799,2.86c-32.3501,6.34-61.1802,19.53-85.6401,41.38
					c-41.05,36.68-61.46,82.83-61.4299,138.04c0.0798,162.33,0,324.65,0.0701,486.97c0.0098,13.93,0.0898,27.74,2.8999,41.68
					c5.1499,25.49,14.1299,49.19,29.3301,70.16c36.71,50.65,86.5398,76.68,149.2397,76.75
					c164.1301,0.19,328.2603-0.07,492.3901,0.23c22.9299,0.04,45-3.3,66.3999-11.04c69.6602-25.21,116.0901-89.86,117.3901-160.74
					C931.1201,673.4124,929.9099,587.9124,929.9099,502.4324z M829.4099,642.6824c-0.0798,103.52-76.96,180.62-180.4399,180.79
					c-95.71,0.15-191.4199,0.11-287.1299,0.02c-102.24-0.09-179.8801-77.71-179.9802-179.92
					c-0.0898-95.69-0.0498-191.39-0.0098-287.08c0.0298-102.71,76.21-179.84,179.0999-180.89c48.3401-0.49,96.6799-0.08,145.01-0.08
					c46.8901-0.03,93.78-0.14,140.6699-0.01c106.55,0.3,182.7402,76.6,182.79,182.9901
					C829.46,453.2224,829.48,547.9524,829.4099,642.6824z"/>
				<path class="st0" d="M770.5,354.9324c-0.1899-68.96-51.1799-119.62-120.22-119.9c-47.8501-0.19-95.6899-0.04-143.54-0.03
					c-48.8101,0-97.6199-0.18-146.4399,0.04c-66.8301,0.3-118.54,49.54-119.3201,116.37c-1.1599,98.56-1.0701,197.15-0.1399,295.72
					c0.6199,65.1299,49.55,115.69,114.51,116.68c100.02,1.53,200.0898,1.45,300.0999,0.04c66.25-0.94,114.8701-52.65,115.05-119
					C770.77,548.2124,770.77,451.5724,770.5,354.9324z M507.21,645.1424c-81.8699,0.1-147.6799-65.35-147.72-146.92
					c-0.03-81.14,66.55-147.28,148.03-147.04c81.28,0.23,146.4199,65.3,146.6799,146.51
					C654.46,579.6024,589.23,645.0524,507.21,645.1424z M667.1799,366.9624c-16.0898-0.19-29.3298-13.69-29.1399-29.71
					c0.2-16.01,13.79-29.18,29.9099-28.97c16.0801,0.21,29.4001,13.81,29.1501,29.75
					C696.8401,354.0824,683.3201,367.1524,667.1799,366.9624z"/>
				<path class="st0" d="M710.7474,897.3633c4.4257,0.989,7.238,3.4118,7.1232,7.7397c-0.1035,3.9011-1.664,7.7761-6.079,8.3672
					c-4.4946,0.6018-7.0291-2.6221-7.5905-6.6503C703.5104,901.8639,706.7301,899.1216,710.7474,897.3633z"/>
				<path class="st0" d="M769.2407,912.1275c1.3531-5.3917-0.8805-14.6531,7.9074-13.85c7.5928,0.6939,6.6194,9.6434,6.3841,15.5255
					c-0.2264,5.6584,1.0554,14.9113-7.7355,14.0685C767.9816,927.1223,770.1131,918.2658,769.2407,912.1275z"/>
				<path class="st0" d="M506.1562,586.2099c-48.2337,0.0453-87.2191-39.3032-87.1806-87.9925
					c0.0386-48.8383,40.3171-88.9241,88.8421-88.4171c48.1645,0.5033,87.1883,40.2005,87.0929,88.5958
					C594.8132,547.8374,556.077,586.163,506.1562,586.2099z"/>
			</g>
		</g>
	</g>
</g>
</svg>
