<?xml version="1.0" encoding="utf-8"?>
<!-- Generator: Adobe Illustrator 28.4.1, SVG Export Plug-In . SVG Version: 6.00 Build 0)  -->
<svg version="1.1" id="Layer_1" xmlns="http://www.w3.org/2000/svg" xmlns:xlink="http://www.w3.org/1999/xlink" x="0px" y="0px"
	 viewBox="0 0 1000 1000" style="enable-background:new 0 0 1000 1000;" xml:space="preserve">
<style type="text/css">
	.st0{fill:#4CC266;}
	.st1{fill:#FFFFFF;}
</style>
<g id="_x39_Mr2fH.tif">
	<g>
		<g>
			<path class="st0" d="M921.2574,502.4342c0,85.4799,1.2017,170.9819-0.3726,256.4328
				c-1.3058,70.8766-47.7275,135.5248-117.3921,160.7329c-21.4036,7.7449-43.4711,11.087-66.3981,11.0449
				c-164.131-0.3017-328.2631-0.0365-492.3945-0.2262c-62.693-0.0724-112.5297-26.1078-149.2389-76.759
				c-15.1951-20.9662-24.1779-44.6608-29.3235-70.1544c-2.8136-13.9398-2.8989-27.7485-2.9049-41.6793
				c-0.0697-162.3225,0.0072-324.6451-0.0719-486.9675c-0.0269-55.2092,20.3807-101.3599,61.4349-138.0447
				c24.4569-21.854,53.2877-35.0404,85.6342-41.3771c13.9505-2.7329,27.7565-2.8593,41.6882-2.8656
				c162.3443-0.0732,324.6887,0.0169,487.0331-0.0808c55.228-0.0332,101.3814,20.3307,138.072,61.3912
				c21.8553,24.4583,35.038,53.2831,41.3754,85.6265c2.7327,13.946,2.8911,27.7455,2.9075,41.6766
				c0.0955,80.4165,0.0465,160.8332,0.0465,241.2499C921.321,502.4342,921.2892,502.4342,921.2574,502.4342z M530.2001,417.1479
				c-3.0731-3.5686-2.1012-6.6667-2.1249-9.49c-0.1147-13.7009-0.3182-27.4105,0.061-41.1018
				c0.1747-6.3072-2.0576-8.2046-8.2413-8.1537c-30.0865,0.2478-60.1788,0.3315-90.2625-0.0492
				c-7.2697-0.092-9.0018,2.3773-8.9923,9.2484c0.1725,125.1035,0.1859,250.2073-0.0262,375.3105
				c-0.0124,7.3156,2.4574,9.0292,9.2789,8.9587c29.4896-0.3044,58.989-0.4269,88.4736,0.062
				c8.2121,0.1362,9.8947-2.7249,9.8142-10.2829c-0.3618-33.9528-0.1597-67.9117-0.1564-101.8684
				c0.0029-28.893-0.0716-57.7863,0.045-86.6788c0.0924-22.8934,5.272-44.2103,20.0038-62.4753
				c28.6656-35.5405,81.0069-34.1613,107.0805,3.1606c12.7875,18.304,15.877,39.4345,15.8762,61.2196
				c-0.0025,62.5518,0.0974,125.1039-0.1224,187.655c-0.0242,6.8929,1.7592,9.3267,9.009,9.2358
				c30.0838-0.3776,60.1761-0.297,90.2626-0.0472c6.1993,0.0515,8.2415-1.8882,8.2227-8.1633
				c-0.2469-82.2098,0.1494-164.424-0.5987-246.6282c-0.2372-26.0689-6.7477-51.1997-19.3685-74.4315
				c-34.3425-63.2161-110.8628-78.0486-172.6779-51.2881C563.1189,381.1402,544.8137,396.3502,530.2001,417.1479z
				 M349.2557,556.0609c0-62.8363-0.0955-125.6729,0.1349-188.5084c0.0255-6.9528-1.861-9.2833-9.0472-9.1944
				c-29.7797,0.3682-59.5689,0.3525-89.3492,0.0089c-7.0441-0.0812-9.1447,2.0126-9.1337,9.1034
				c0.193,125.0767,0.1887,250.1538,0.0086,375.2306c-0.01,6.9506,1.8571,9.2856,9.0436,9.1942
				c29.1838-0.3716,58.3805-0.4633,87.5604,0.0388c8.5758,0.1476,11.0208-2.3333,10.9718-10.939
				C349.0938,679.3518,349.2573,617.7059,349.2557,556.0609z M295.8528,312.6309c34.7592-0.124,62.0506-27.641,62.0149-62.5276
				c-0.0354-34.5641-27.8922-62.8542-62.0112-62.9756c-34.4558-0.1226-62.8805,28.7359-62.4655,63.419
				C233.8108,285.6288,261.1018,312.7548,295.8528,312.6309z"/>
		</g>
	</g>
</g>
</svg>
