<?xml version="1.0" encoding="utf-8"?>
<!-- Generator: Adobe Illustrator 28.4.1, SVG Export Plug-In . SVG Version: 6.00 Build 0)  -->
<svg version="1.1" id="Layer_1" xmlns="http://www.w3.org/2000/svg" xmlns:xlink="http://www.w3.org/1999/xlink" x="0px" y="0px"
	 viewBox="0 0 1000 1000" style="enable-background:new 0 0 1000 1000;" xml:space="preserve">
<style type="text/css">
	.st0{fill:#4CC266;}
	.st1{fill:#FFFFFF;}
</style>
<path class="st0" d="M758.2812,928.8198H239.1166c-93.8429,0-169.9177-76.0748-169.9177-169.9177V239.7375
	c0-93.8429,76.0747-169.9177,169.9177-169.9177h519.1646c93.843,0,169.9177,76.0747,169.9177,169.9177v519.1647
	C928.199,852.7451,852.1242,928.8198,758.2812,928.8198z"/>
<path class="st1" d="M792.9678,617.7682c-0.3894,5.2984-2.9899,7.2453-7.8433,4.5753
	c-12.3073-6.7447-24.5171-13.6701-36.7966-20.4843c-9.6511-5.3539-19.3578-10.6107-29.0228-15.9507
	c-8.2326-4.5613-16.493-9.0809-24.6283-13.7953c-4.6031-2.67-5.1593-7.1757-5.1454-12.0847
	c0.0834-34.0709,0.0834-68.1279-0.0278-102.1987c-0.0139-3.4904,1.5853-8.0936-2.7396-9.9848
	c-3.9216-1.7105-7.2175,0.9039-10.7498,2.9899c-11.6953,6.9254-23.7661,13.2112-35.684,19.761
	c-13.0861,7.2175-26.172,14.4211-39.2441,21.6802c-12.6548,7.0228-25.129,14.3654-37.9507,21.0544
	c-8.3717,4.3666-13.3919,9.359-13.239,20.0809c0.6259,41.2466,0.2365,82.4932,0.2503,123.7537c0,2.086-0.0416,4.1859,0.2365,6.244
	c0.8622,6.3274,4.7699,8.4691,10.3325,5.3818c19.0796-10.6246,38.062-21.4716,57.1556-32.0962
	c14.268-7.9266,28.6612-15.6448,42.9849-23.4741c2.5727-1.4185,5.0202-0.6815,7.2731,0.5701
	c15.4501,8.636,30.7889,17.4666,46.2946,26.019c12.0708,6.6612,24.3364,12.9747,36.4767,19.5247
	c2.4337,1.3072,4.6586,2.9899,6.9949,4.464c7.0367,4.45,7.2453,6.7028-0.0556,10.9166
	c-9.3452,5.3818-19.1492,9.9709-28.6057,15.1719c-12.0847,6.6613-23.9886,13.684-36.0594,20.387
	c-16.66,9.2756-33.4312,18.3705-50.119,27.5904c-12.2654,6.7864-24.4475,13.7258-36.6991,20.5121
	c-13.5032,7.4817-27.1037,14.7687-40.5652,22.2921c-16.2705,9.1087-32.4438,18.3843-48.6727,27.5626
	c-4.4083,2.4893-8.8445,4.9507-13.3502,7.2592c-3.5322,1.8079-7.2731,1.6827-10.6941-0.2364
	c-16.0341-9.0114-31.9293-18.2453-48.019-27.1593c-19.7195-10.9305-39.6057-21.5412-59.3529-32.4299
	c-16.5209-9.0948-32.9027-18.44-49.4097-27.5765c-16.4792-9.1088-33.0974-17.9811-49.5488-27.1455
	c-12.8357-7.1479-25.5184-14.56-38.2567-21.9026c-4.3527-2.5171-9.5398-3.5322-13.0303-7.6902
	c-2.1416-2.5449-2.3641-4.2137,0.7787-5.9798c10.2352-5.7433,20.3591-11.6954,30.6082-17.4109
	c16.8686-9.4008,33.7788-18.6903,50.6891-28.0077c4.2415-2.3502,8.469-4.7421,12.8078-6.8976
	c2.6005-1.3072,4.8812-0.9039,7.7043,0.7371c12.7104,7.4122,25.713,14.3515,38.6044,21.4577
	c12.4741,6.8837,24.9482,13.7396,37.3944,20.665c7.6486,4.2554,15.1581,8.7612,22.8762,12.8774
	c5.201,2.7674,9.0114,0.6675,9.9848-5.2288c0.3755-2.2668,0.3477-4.617,0.3616-6.9254c0.0139-41.483-0.2503-82.966,0.2225-124.449
	c0.0973-8.1214-2.7952-13.3364-9.22-16.9103c-16.0898-8.9558-32.4022-17.4943-48.5058-26.3944
	c-12.6689-7.0089-25.1568-14.3654-37.7561-21.4716c-11.445-6.4526-22.8483-12.9748-34.4602-19.1075
	c-6.1049-3.2263-9.6789-0.4867-9.6928,7.2036c-0.0834,34.3073-0.2782,68.6007,0.0974,102.9079
	c0.0974,8.4551-3.1151,12.7383-10.5967,16.4791c-16.215,8.0936-31.8598,17.3831-47.6853,26.2693
	c-12.2378,6.8698-24.3363,13.976-36.6297,20.7346c-6.0632,3.3375-8.5525,1.5297-8.5803-6.1467
	c-0.0974-22.7231-0.0418-45.4324-0.0418-68.1417v-72.3137c0-45.1821,0.0695-90.3782-0.0695-135.5742
	c-0.0139-7.0783,0.6536-12.8495,8.2744-16.4235c9.5537-4.4501,18.5234-10.1378,27.7434-15.2554
	c8.8445-4.9229,17.7168-9.7902,26.5613-14.6992c9.4286-5.2428,18.8433-10.4994,28.2719-15.7422
	c13.0721-7.2592,26.1302-14.5323,39.2024-21.7637c12.2377-6.7724,24.5032-13.517,36.7548-20.2895
	c16.493-9.1227,33-18.2592,49.4792-27.4236c15.2833-8.4968,30.5108-17.0632,45.7941-25.5323
	c3.0316-1.6827,4.9785-0.3198,5.5069,2.8231c0.4172,2.5031,0.4728,5.0758,0.4728,7.6207
	c0.0278,30.5943-0.0695,61.1885,0.1113,91.7688c0.0417,6.0632-1.2099,10.5551-7.1202,13.6144
	c-13.4754,6.9811-26.7421,14.4211-40.0089,21.7915c-15.7005,8.7332-31.3313,17.5916-46.9761,26.3945
	c-0.8065,0.459-1.5297,1.0569-2.3502,1.5019c-12.2377,6.7168-12.6549,10.1378-0.6953,17.536
	c11.9179,7.3843,24.4337,13.7813,36.7131,20.5538c20.7624,11.4311,41.7473,22.4728,62.0785,34.6966
	c4.5196,2.7118,9.4286,4.8117,14.0316,7.4261c7.6625,4.3527,15.1163,3.4071,22.4172-0.7093
	c16.0342-9.067,31.9432-18.3427,48.033-27.2706c12.2933-6.8281,24.8648-13.1138,37.1581-19.9002
	c10.4716-5.7712,20.8318-11.7371,31.0253-17.9672c5.5347-3.3793,4.8256-9.4841-0.9595-12.488
	c-24.5449-12.7244-48.4641-26.5753-72.5919-40.0506c-7.8293-4.3806-15.7977-8.4969-23.5297-13.0582
	c-3.4488-2.0165-4.7977-4.6865-4.7838-8.5108c0.0417-33.3616-0.0556-66.7372,0.0974-100.1127
	c0.0417-6.8142,2.1973-7.5651,8.0657-4.2693c16.4653,9.2339,33.0696,18.1758,49.5488,27.354
	c20.081,11.2086,40.0507,22.6119,60.1455,33.8066c15.6309,8.7194,31.4287,17.1746,47.0735,25.8661
	c20.9153,11.6119,41.636,23.5715,62.6626,34.9609c11.7231,6.3413,23.4879,12.5993,35.0443,19.2604
	c3.7548,2.1555,5.3401,4.8117,5.3123,8.8723c-0.0278,2.3224,0.0974,4.6309,0.0974,6.9532
	c0.0139,90.6146,0.0278,181.2292,0.0278,271.8438C793.0374,614.528,793.093,616.1552,792.9678,617.7682z"/>
</svg>
