<?xml version="1.0" encoding="utf-8"?>
<!-- Generator: Adobe Illustrator 28.4.1, SVG Export Plug-In . SVG Version: 6.00 Build 0)  -->
<svg version="1.1" id="Layer_1" xmlns="http://www.w3.org/2000/svg" xmlns:xlink="http://www.w3.org/1999/xlink" x="0px" y="0px"
	 viewBox="0 0 1000 1000" style="enable-background:new 0 0 1000 1000;" xml:space="preserve">
<style type="text/css">
	.st0{fill:#007239;}
	.st1{fill:#4CC266;}
</style>
<path class="st1" d="M932.5164,674.0955c-0.5723,7.7875-4.3946,10.6492-11.528,6.7248
	c-18.0892-9.9134-36.0353-20.0923-54.0836-30.1078c-14.1852-7.8693-28.4521-15.5955-42.6577-23.4443
	c-12.1003-6.7043-24.2415-13.3472-36.1987-20.2764c-6.7657-3.9244-7.5832-10.5468-7.5627-17.762
	c0.1226-50.0774,0.1226-100.1344-0.0409-150.2118c-0.0205-5.1303,2.3301-11.8959-4.0266-14.6757
	c-5.764-2.514-10.6082,1.3286-15.8,4.3946c-17.1898,10.179-34.9315,19.4178-52.4483,29.0448
	c-19.2339,10.6082-38.4676,21.1961-57.681,31.8656c-18.6001,10.3221-36.9346,21.1143-55.78,30.9458
	c-12.3048,6.4182-19.6835,13.7559-19.4587,29.515c0.9198,60.6242,0.3475,121.2485,0.3679,181.8932
	c0,3.066-0.0613,6.1524,0.3475,9.1774c1.2673,9.3,7.0108,12.4479,15.1867,7.9102c28.0433-15.616,55.9435-31.559,84.0073-47.1749
	c20.9712-11.6506,42.1263-22.9947,63.1793-34.5021c3.7813-2.0849,7.3787-1.0017,10.6899,0.838
	c22.7085,12.6931,45.2536,25.6723,68.0438,38.2428c17.7417,9.7906,35.7695,19.0702,53.6135,28.6973
	c3.577,1.9213,6.8473,4.3946,10.2811,6.5612c10.3425,6.5406,10.6492,9.8518-0.0817,16.0452
	c-13.7355,7.9102-28.1456,14.6552-42.0446,22.2997c-17.7621,9.7907-35.2585,20.1127-53.0002,29.9647
	c-24.4869,13.6332-49.1372,27.0009-73.6649,40.5524c-18.0278,9.9746-35.933,20.1741-53.9404,30.1486
	c-19.847,10.9966-39.837,21.7071-59.6228,32.765c-23.9144,13.388-47.6859,27.0212-71.5391,40.5116
	c-6.4793,3.6586-12.9996,7.2765-19.6221,10.6694c-5.1917,2.6573-10.6899,2.4733-15.7182-0.3474
	c-23.567-13.2449-46.9297-26.817-70.5783-39.9188c-28.9837-16.0657-58.2125-31.6613-87.2369-47.6655
	c-24.2824-13.3677-48.3604-27.1031-72.6223-40.532c-24.2212-13.388-48.6465-26.4286-72.8268-39.8984
	c-18.8658-10.5061-37.5069-21.4004-56.2298-32.1926c-6.3976-3.6996-14.0216-5.1917-19.152-11.3031
	c-3.1477-3.7405-3.4748-6.1933,1.1446-8.7891c15.0436-8.4417,29.9238-17.1899,44.9879-25.5906
	c24.7934-13.8173,49.6481-27.471,74.5029-41.1656c6.2341-3.4543,12.4477-6.9699,18.8249-10.1382
	c3.8222-1.9213,7.1744-1.3285,11.3237,1.0834c18.6818,10.8944,37.7931,21.0938,56.7407,31.5385
	c18.3344,10.1177,36.6689,20.1945,54.9624,30.3734c11.2419,6.2545,22.2794,12.8771,33.6234,18.9272
	c7.6444,4.0675,13.2449,0.9811,14.6757-7.6854c0.5519-3.3317,0.511-6.786,0.5315-10.179
	c0.0204-60.9717-0.3679-121.9434,0.3271-182.9152c0.143-11.9369-4.1084-19.6017-13.5515-24.8548
	c-23.6488-13.1632-47.6247-25.7131-71.2938-38.7946c-18.6207-10.3016-36.9755-21.1143-55.4939-31.559
	c-16.8219-9.4841-33.5825-19.0703-50.6496-28.0842c-8.9731-4.742-14.2261-0.7154-14.2466,10.5878
	c-0.1226,50.4248-0.4088,100.8293,0.1431,151.2541c0.1431,12.4274-4.5785,18.7228-15.5751,24.221
	c-23.8328,11.896-46.8275,25.5497-70.0878,38.6107c-17.9871,10.0972-35.7695,20.5419-53.8383,30.4757
	c-8.9117,4.9055-12.5705,2.2484-12.6113-9.0344c-0.1431-33.3985-0.0614-66.7766-0.0614-100.1547V464.6904
	c0-66.4087,0.1022-132.8378-0.1022-199.267c-0.0205-10.4038,0.9606-18.8863,12.1617-24.1393
	c14.0421-6.5407,27.2257-14.9005,40.7773-22.4223c12.9996-7.2357,26.0402-14.3896,39.0398-21.6048
	c13.8581-7.7058,27.6958-15.432,41.554-23.1378c19.2133-10.6696,38.4062-21.3595,57.6196-31.9882
	c17.9869-9.9541,36.0148-19.8674,54.0222-29.8215c24.2415-13.4085,48.5034-26.8374,72.7245-40.3072
	c22.4634-12.4887,44.8448-25.0795,67.3082-37.5273c4.4558-2.4733,7.3173-0.4701,8.0941,4.1493
	c0.6132,3.6791,0.695,7.4604,0.695,11.2009c0.0408,44.9674-0.1022,89.9348,0.1635,134.8818
	c0.0612,8.9117-1.7784,15.5138-10.4652,20.0105c-19.8061,10.2608-39.3056,21.1961-58.8051,32.0292
	c-23.0765,12.8361-46.0508,25.8562-69.0455,38.7946c-1.1854,0.6746-2.2483,1.5534-3.4543,2.2075
	c-17.9869,9.8723-18.6001,14.9005-1.022,25.7745c17.5168,10.8535,35.9126,20.2557,53.9609,30.21
	c30.5165,16.8014,61.3601,33.0305,91.243,50.997c6.6429,3.9858,13.8581,7.0722,20.6236,10.9149
	c11.2623,6.3977,22.218,5.0078,32.9489-1.0424c23.5671-13.3268,46.9501-26.96,70.5989-40.0823
	c18.0687-10.036,36.5463-19.2747,54.6149-29.2493c15.3912-8.4825,30.6187-17.2511,45.6011-26.4082
	c8.135-4.9668,7.0927-13.9398-1.4103-18.3548c-36.076-18.7023-71.2324-39.0603-106.6954-58.8664
	c-11.5076-6.4386-23.2195-12.4886-34.584-19.1929c-5.069-2.9638-7.0517-6.8882-7.0312-12.5091
	c0.0614-49.0349-0.0817-98.0903,0.1431-147.1457c0.0614-10.0155,3.2296-11.1192,11.855-6.275
	c24.2007,13.572,48.6058,26.7148,72.8268,40.2049c29.515,16.4744,58.8665,33.235,88.4019,49.689
	c22.9742,12.8158,46.1939,25.2431,69.1886,38.018c30.7413,17.0671,61.1966,34.6454,92.1015,51.3855
	c17.2307,9.3205,34.5226,18.5184,51.508,28.309c5.5188,3.1681,7.8489,7.0722,7.808,13.0406
	c-0.0408,3.4134,0.1431,6.8065,0.1431,10.2199c0.0204,133.1853,0.0409,266.3707,0.0409,399.556
	C932.6186,669.3331,932.7003,671.7246,932.5164,674.0955z"/>
</svg>
