<?xml version="1.0" encoding="utf-8"?>
<!-- Generator: Adobe Illustrator 28.4.1, SVG Export Plug-In . SVG Version: 6.00 Build 0)  -->
<svg version="1.1" id="Layer_1" xmlns="http://www.w3.org/2000/svg" xmlns:xlink="http://www.w3.org/1999/xlink" x="0px" y="0px"
	 viewBox="0 0 1000 1000" style="enable-background:new 0 0 1000 1000;" xml:space="preserve">
<style type="text/css">
	.st0{fill:#4CC266;}
	.st1{fill:#FFFFFF;}
</style>
<g>
	<path class="st0" d="M759.5823,929.5H240.4177C146.5747,929.5,70.5,853.4252,70.5,759.5823V240.4177
		C70.5,146.5747,146.5747,70.5,240.4177,70.5h519.1647C853.4252,70.5,929.5,146.5747,929.5,240.4177v519.1647
		C929.5,853.4252,853.4252,929.5,759.5823,929.5z"/>
	<g id="_x38_fGoSH.tif">
		<g>
			<g>
				<path class="st1" d="M499.5705,841.6033c-189.197-0.092-343.6945-152.0383-341.5077-346.7385
					c2.0895-186.0434,150.4854-332.4459,335.0521-336.3879c193.1513-4.1255,349.7159,151.187,348.8416,342.425
					C841.0838,691.8152,689.8054,841.7919,499.5705,841.6033z M499.7964,574.7613c0-0.0501-0.0001-0.1002-0.0001-0.1503
					c31.3066,0,62.6133,0.0006,93.92-0.0004c10.7733-0.0004,10.9683,0.0117,11.7559-10.9637
					c3.1155-43.4166,3.2277-86.8365,0.0886-130.2693c-0.465-6.4339-2.6267-8.8139-9.5135-8.6253
					c-26.57,0.7275-53.1575,0.9556-79.7397,1.0584c-36.5114,0.1412-73.0244-0.1144-109.5357,0.0458
					c-11.573,0.0508-11.6753,0.4038-12.4284,12.0125c-2.2596,34.8271-3.7685,69.6737-1.4734,104.5613
					c0.58,8.8163,1.9171,17.5884,2.3332,26.4078c0.2585,5.4772,3.0554,6.0148,7.5464,5.9959
					C435.0981,574.6984,467.4474,574.7613,499.7964,574.7613z M500.123,625.2498c-30.248,0-60.4961,0.0356-90.7439-0.0444
					c-3.8393-0.0101-6.4652-0.0842-5.4384,5.3238c6.2755,33.0517,16.6159,64.7997,30.4798,95.3846
					c9.1907,20.2753,20.211,39.4694,37.2895,54.3559c16.8232,14.6638,36.5687,15.0794,54.2845,1.8978
					c10.7113-7.9698,17.7847-18.8513,24.5724-29.8443c22.5204-36.473,36.0914-76.3396,44.6165-118.1951
					c1.6168-7.9377-0.1813-9.0981-7.4429-9.0147C558.5379,625.4493,529.3293,625.2524,500.123,625.2498z M499.8455,374.6222
					c0,0.0542,0.0001,0.1084,0.0001,0.1627c29.9938,0,59.9892-0.1661,89.9799,0.1348c6.286,0.0631,7.3083-1.6444,6.1071-7.5656
					c-6.5543-32.307-16.41-63.5063-30.5157-93.307c-9.2892-19.6249-19.7872-38.5014-36.2609-53.2573
					c-18.4216-16.5009-40.9718-16.192-59.0426,0.7205c-8.036,7.5209-15.0461,15.8513-20.7929,25.2719
					c-22.4678,36.8311-35.5841,77.0584-44.475,119.0231c-1.9474,9.1914,1.4436,8.9721,8.143,8.9177
					C441.9391,374.4876,470.8928,374.6222,499.8455,374.6222z M719.1566,574.767c0.0001,0.04,0.0001,0.0799,0.0002,0.1199
					c18.7749,0,37.5533-0.1964,56.3226,0.13c5.0638,0.088,7.3603-1.3383,8.5049-6.35c10.3099-45.1419,10.4408-90.2121,0.209-135.414
					c-1.5401-6.8041-4.483-8.5189-11.0626-8.4602c-36.7679,0.3279-73.5408,0.3534-110.3096,0.1197
					c-6.6334-0.0422-8.256,1.6284-7.6086,8.442c2.9832,31.393,4.3121,62.8961,2.9773,94.4236
					c-0.5499,12.9899-0.2237,26.0754-2.4512,38.9563c-1.1442,6.6166,1.3396,8.347,7.8793,8.1891
					C682.1213,574.4768,700.6425,574.767,719.1566,574.767z M280.2532,574.7472c0-0.0404,0.0001-0.0808,0.0001-0.1212
					c19.3005,0,38.6029-0.1432,57.9003,0.103c4.686,0.0598,6.831-0.975,6.0958-6.0204c-0.6734-4.6214-1.0306-9.2985-1.3258-13.9637
					c-2.5219-39.8536-2.8717-79.7,1.235-119.4719c0.7573-7.3346-1.0552-9.9543-8.9418-9.8326
					c-37.0106,0.5712-74.0306,0.6788-111.0464,0.5911c-5.4239-0.0128-7.4135,2.2748-8.2339,6.8461
					c-1.9226,10.7133-3.6894,21.4452-5.3351,32.211c-5.3555,35.0334-2.1327,69.4376,5.5354,103.7093
					c1.0226,4.5704,2.8175,6.1965,7.7854,6.0984C242.6929,574.5255,261.4753,574.7472,280.2532,574.7472z M237.0383,625.1602
					c29.8251,68.4236,100.8588,129.9634,164.4218,148.4445c0.0681-0.4738,0.3544-1.0633,0.1723-1.3978
					c-24.3911-44.7998-40.5538-92.4518-49.2711-142.6477c-0.6819-3.9264-2.6241-4.43-5.8315-4.4
					c-8.8705,0.0828-17.7426,0.0037-26.614,0.0024C292.5508,625.1577,265.1858,625.1602,237.0383,625.1602z M597.5021,225.822
					c2.7132,5.2547,4.7289,9.081,6.6763,12.9418c19.7089,39.0762,33.9854,79.9884,41.5178,123.1658
					c2.2153,12.6986,2.1546,12.7104,15.3784,12.7085c31.2926-0.0045,62.5851-0.0146,93.8777-0.0125
					c8.4673,0.0006,8.4826,0.0088,4.4436-7.742c-27.2435-52.2802-66.7454-92.7469-117.9736-121.7239
					C627.9261,237.5258,613.8666,230.9086,597.5021,225.822z M597.5925,774.5877c5.6159-2.2587,9.4702-3.7579,13.2852-5.3509
					c66.5395-27.7825,115.9319-74.1124,149.2793-137.8567c2.3052-4.4064,2.4391-6.2918-3.5021-6.2617
					c-34.1353,0.1727-68.2724,0.1513-102.4079-0.0128c-4.5712-0.022-6.0698,1.3761-6.8368,5.9999
					c-4.7313,28.5214-12.1499,56.3764-22.1763,83.5035C617.7656,734.8146,608.3531,754.1549,597.5925,774.5877z M236.8289,374.5353
					c37.9521,0,74.425-0.0277,110.8978,0.0446c3.4939,0.0069,4.0836-1.7924,4.6805-4.7398
					c2.9426-14.5283,5.6616-29.1336,9.4355-43.4546c6.0977-23.1388,13.5886-45.8245,24.5432-67.2514
					c5.4576-10.6749,10.2868-21.671,16.3318-34.4987C327.8889,254.3806,273.1567,302.9912,236.8289,374.5353z"/>
			</g>
		</g>
	</g>
</g>
</svg>
