<?xml version="1.0" encoding="utf-8"?>
<!-- Generator: Adobe Illustrator 28.4.1, SVG Export Plug-In . SVG Version: 6.00 Build 0)  -->
<svg version="1.1" id="Layer_1" xmlns="http://www.w3.org/2000/svg" xmlns:xlink="http://www.w3.org/1999/xlink" x="0px" y="0px"
	 viewBox="0 0 1000 1000" style="enable-background:new 0 0 1000 1000;" xml:space="preserve">
<style type="text/css">
	.st0{fill:#4CC266;}
	.st1{fill:#FFFFFF;}
</style>
<g id="_x33_S4Ns9.tif">
	<g>
		<g>
			<path class="st0" d="M466.1774,830.595c-36.3866,0.392-91.729-1.4595-147.0651-3.1414
				c-41.6563-1.2662-83.3214-3.2216-124.8002-7.3135c-26.1064-2.5754-52.6921-3.9243-77.3648-14.1198
				c-37.2506-15.3928-61.0847-42.937-70.613-82.1346c-10.6225-43.6989-13.359-88.4163-15.8276-133.1234
				c-1.9418-35.1662-3.3642-70.3625-2.7139-105.5821c0.7385-39.9946,2.2506-79.9862,5.7538-119.8372
				c2.7423-31.1959,5.1636-62.6722,14.5656-92.6885c13.6422-43.5532,42.9807-71.9288,87.8666-82.1301
				c36.7675-8.3562,74.4777-9.785,111.9968-11.835c71.7922-3.9227,143.6562-5.3293,215.552-6.1148
				c76.9551-0.8408,153.8565,0.8417,230.7299,3.6104c48.5577,1.7489,97.1155,4.2744,145.3422,10.9944
				c28.3181,3.9459,54.3958,12.4355,75.93,32.3821c22.9457,21.2542,33.4122,48.3032,38.6783,78.2613
				c9.3133,52.9801,11.7899,106.4891,13.6185,160.1007c1.9464,57.0664-0.4142,113.9778-4.6465,170.8624
				c-2.5401,34.1409-5.0305,68.4202-14.8143,101.3266c-13.5157,45.4582-44.5167,73.2457-90.9644,83.0737
				c-27.2203,5.7596-54.9858,7.7508-82.6918,9.5035C678.2961,828.7888,581.7578,830.68,466.1774,830.595z M405,382.392v238.1865
				c0,9.5332,10.3186,15.4937,18.5798,10.7361c68.9981-39.7358,137.5108-79.1918,206.8036-119.0974
				c8.277-4.7667,8.2763-16.7131-0.001-21.4794c-69.4137-39.97-137.8749-79.3917-206.8033-119.0823
				C415.3179,366.8986,405,372.8592,405,382.392z"/>
		</g>
	</g>
</g>
</svg>
